<svg width="24" height="23" viewBox="0 0 24 23" fill="none" xmlns="http://www.w3.org/2000/svg">
<g filter="url(#filter0_d)">
<path d="M19.2 7.99999H18.9333V2.4C18.9333 1.06666 17.8667 0 16.5333 0C15.353 0 14.5041 0.875187 14.4092 2.15753C13.7895 2.27465 13.3333 2.80834 13.3333 3.46665C13.3333 3.62665 13.44 3.73331 13.6 3.73331H15.7333C15.8933 3.73331 16 3.62665 16 3.46665C16 2.81562 15.5539 2.28637 14.9448 2.16144C15.0245 1.31406 15.5334 0.533312 16.5333 0.533312C17.5733 0.533312 18.4 1.35997 18.4 2.39997V7.99996H10.3742C10.2536 7.38493 9.72178 6.93331 9.06669 6.93331C8.80003 6.61331 8.42669 6.39996 8.00003 6.39996C7.49338 6.39996 7.04003 6.69331 6.82669 7.11996C6.61334 7.01331 6.37334 6.93331 6.13334 6.93331C5.47825 6.93331 4.94644 7.38493 4.82581 7.99996H4.8C4.34666 7.99996 4 8.34662 4 8.79996C4 9.2533 4.34666 9.59996 4.8 9.59996H5.12047L5.84 12.4533C6.05334 13.28 6.8 13.8666 7.65334 13.8666H7.86669L7.52003 14.56C7.44003 14.6933 7.49338 14.8533 7.62669 14.9066C7.65334 14.9333 7.70669 14.9333 7.73334 14.9333C7.84 14.9333 7.92 14.88 7.97334 14.8L8.44 13.8666H15.84L16.2933 14.7733C16.3467 14.88 16.4267 14.9333 16.5333 14.9333C16.5867 14.9333 16.6133 14.9333 16.64 14.88C16.7467 14.8266 16.8 14.6666 16.7467 14.5333L16.4126 13.8652C17.2382 13.8359 17.9522 13.2593 18.16 12.48L18.8862 9.59996H19.2C19.6533 9.59996 20 9.2533 20 8.79996C20 8.34665 19.6533 7.99999 19.2 7.99999ZM15.44 3.2H13.92C14.0267 2.88 14.3467 2.66665 14.6933 2.66665C15.04 2.66665 15.3333 2.88 15.44 3.2ZM6.13334 7.46665C6.37334 7.46665 6.58669 7.5733 6.77334 7.75999C6.82669 7.83999 6.93334 7.86665 7.04 7.83999C7.14666 7.81334 7.2 7.73334 7.22666 7.62665C7.30666 7.22665 7.62666 6.93331 8.02666 6.93331C8.32 6.93331 8.58666 7.06665 8.72 7.3333C8.77334 7.43996 8.90666 7.4933 9.01334 7.46665C9.04 7.46665 9.06669 7.46665 9.09334 7.46665C9.44 7.46665 9.73334 7.67999 9.84 7.99999H5.38666C5.49334 7.67999 5.78666 7.46665 6.13334 7.46665ZM17.68 12.32C17.52 12.9066 16.9867 13.3333 16.3733 13.3333H7.68C7.06666 13.3333 6.53334 12.9067 6.37334 12.32L5.68 9.59999H18.32L17.68 12.32ZM19.2 9.06665H18.6667H5.33334H4.8C4.64 9.06665 4.53334 8.95999 4.53334 8.79999C4.53334 8.63999 4.64 8.53334 4.8 8.53334H5.06666H10.1333H19.2C19.36 8.53334 19.4667 8.63999 19.4667 8.79999C19.4667 8.95999 19.36 9.06665 19.2 9.06665Z" fill="#7A869A"/>
<path d="M13.6 4.93331C13.76 4.93331 13.8667 4.82665 13.8667 4.66665V4.53331C13.8667 4.37331 13.76 4.26665 13.6 4.26665C13.44 4.26665 13.3333 4.37331 13.3333 4.53331V4.66665C13.3333 4.82665 13.44 4.93331 13.6 4.93331Z" fill="#7A869A"/>
<path d="M13.6 6.16C13.76 6.16 13.8667 6.02666 13.8667 5.89334V5.6C13.8667 5.44 13.76 5.33334 13.6 5.33334C13.44 5.33334 13.3333 5.44 13.3333 5.6V5.89334C13.3333 6.05331 13.44 6.16 13.6 6.16Z" fill="#7A869A"/>
<path d="M13.6 7.2C13.76 7.2 13.8667 7.09334 13.8667 6.93334V6.8C13.8667 6.64 13.76 6.53334 13.6 6.53334C13.44 6.53334 13.3333 6.64 13.3333 6.8V6.93334C13.3333 7.09331 13.44 7.2 13.6 7.2Z" fill="#7A869A"/>
<path d="M14.6667 4.93331C14.8267 4.93331 14.9333 4.82665 14.9333 4.66665V4.53331C14.9333 4.37331 14.8267 4.26665 14.6667 4.26665C14.5067 4.26665 14.4 4.37331 14.4 4.53331V4.66665C14.4 4.82665 14.5067 4.93331 14.6667 4.93331Z" fill="#7A869A"/>
<path d="M14.4 5.89331C14.4 6.05331 14.5067 6.15997 14.6667 6.15997C14.8267 6.15997 14.9333 6.02663 14.9333 5.89331V5.59997C14.9333 5.43997 14.8267 5.33331 14.6667 5.33331C14.5067 5.33331 14.4 5.43997 14.4 5.59997V5.89331Z" fill="#7A869A"/>
<path d="M14.4 6.93331C14.4 7.09331 14.5067 7.19997 14.6667 7.19997C14.8267 7.19997 14.9333 7.09331 14.9333 6.93331V6.79997C14.9333 6.63997 14.8267 6.53331 14.6667 6.53331C14.5067 6.53331 14.4 6.63997 14.4 6.79997V6.93331Z" fill="#7A869A"/>
<path d="M15.7334 4.93331C15.8934 4.93331 16 4.82665 16 4.66665V4.53331C16 4.37331 15.8934 4.26665 15.7334 4.26665C15.5734 4.26665 15.4667 4.37331 15.4667 4.53331V4.66665C15.4667 4.82665 15.5734 4.93331 15.7334 4.93331Z" fill="#7A869A"/>
<path d="M15.4667 5.89331C15.4667 6.05331 15.5733 6.15997 15.7333 6.15997C15.8933 6.15997 16 6.02666 16 5.89331V5.59997C16 5.43997 15.8934 5.33331 15.7334 5.33331C15.5734 5.33331 15.4667 5.43997 15.4667 5.59997V5.89331H15.4667Z" fill="#7A869A"/>
<path d="M15.4667 6.93331C15.4667 7.09331 15.5733 7.19997 15.7333 7.19997C15.8933 7.19997 16 7.09331 16 6.93331V6.79997C16 6.63997 15.8933 6.53331 15.7333 6.53331C15.5733 6.53331 15.4667 6.63997 15.4667 6.79997V6.93331Z" fill="#7A869A"/>
</g>
<defs>
<filter id="filter0_d" x="0" y="0" width="24" height="22.9333" filterUnits="userSpaceOnUse" color-interpolation-filters="sRGB">
<feFlood flood-opacity="0" result="BackgroundImageFix"/>
<feColorMatrix in="SourceAlpha" type="matrix" values="0 0 0 0 0 0 0 0 0 0 0 0 0 0 0 0 0 0 127 0"/>
<feOffset dy="4"/>
<feGaussianBlur stdDeviation="2"/>
<feColorMatrix type="matrix" values="0 0 0 0 0 0 0 0 0 0 0 0 0 0 0 0 0 0 0.25 0"/>
<feBlend mode="normal" in2="BackgroundImageFix" result="effect1_dropShadow"/>
<feBlend mode="normal" in="SourceGraphic" in2="effect1_dropShadow" result="shape"/>
</filter>
</defs>
</svg>
