<svg width="16" height="11" viewBox="0 0 16 11" fill="none" xmlns="http://www.w3.org/2000/svg">
<path d="M14.4428 4.19251V4.1754V1.59144C14.4428 0.427807 13.6214 0 12.8513 0H3.09733C2.32727 0 1.50588 0.410695 1.50588 1.59144V4.1754V4.19251C0.735829 4.27807 0 4.79144 0 5.97219V7.99144C0 8.33368 0.273797 8.60748 0.616043 8.60748H0.82139V10.1989C0.82139 10.5412 1.09519 10.815 1.43743 10.815H2.01925C2.3615 10.815 2.63529 10.5412 2.63529 10.1989V8.59037H13.3647V10.1989C13.3647 10.5412 13.6385 10.815 13.9807 10.815H14.5626C14.9048 10.815 15.1786 10.5412 15.1786 10.1989V8.59037H15.384C15.7262 8.59037 16 8.31657 16 7.97433V5.97219C15.9487 4.79144 15.2128 4.27807 14.4428 4.19251ZM2.0877 1.59144H2.12193C2.12193 0.787165 2.65241 0.616042 3.09733 0.616042H12.8513C13.2963 0.616042 13.8267 0.787165 13.8267 1.59144V4.1754H13.3647V2.70374C13.3647 2.3615 13.0909 2.0877 12.7487 2.0877H8.98396C8.64171 2.0877 8.36792 2.3615 8.36792 2.70374V4.1754H7.6492V2.70374C7.6492 2.3615 7.3754 2.0877 7.03315 2.0877H3.26845C2.9262 2.0877 2.65241 2.3615 2.65241 2.70374V4.1754H2.0877V1.59144ZM12.7487 2.70374V4.1754H8.98396V2.70374H12.7487ZM7.06738 2.70374V4.1754H3.30267V2.70374H7.06738ZM2.00214 10.1989H1.42032V8.59037H2.00214V10.1989ZM14.5283 10.1989H13.9465V8.59037H14.5283V10.1989ZM15.3326 7.99144H14.5283H13.9465H2.00214H1.42032H0.59893V7.08449H15.3326V7.99144ZM15.3326 6.46845H0.59893V5.97219C0.59893 4.94545 1.35187 4.79144 1.77968 4.79144H2.10481H3.28556H7.05027H8.98396H12.7487H13.8267H14.1519C14.5968 4.79144 15.3326 4.94545 15.3326 5.97219V6.46845Z" fill="#728097"/>
</svg>
