<svg width="14" height="14" viewBox="0 0 14 14" fill="none" xmlns="http://www.w3.org/2000/svg">
<path d="M1.31967e-07 2L4.66667 0L8.66667 2L12.8687 0.199333C12.9194 0.177589 12.9747 0.168779 13.0297 0.173695C13.0847 0.17861 13.1375 0.197097 13.1836 0.227497C13.2297 0.257896 13.2675 0.299256 13.2936 0.347865C13.3197 0.396474 13.3334 0.450812 13.3333 0.506V11.3333L8.66667 13.3333L4.66667 11.3333L0.464667 13.134C0.413943 13.1557 0.358613 13.1646 0.303644 13.1596C0.248675 13.1547 0.195786 13.1362 0.149725 13.1058C0.103663 13.0754 0.0658705 13.0341 0.039738 12.9855C0.0136055 12.9369 -4.89709e-05 12.8825 1.31967e-07 12.8273V2ZM9.33333 11.5967L12 10.454V2.022L9.33333 3.16467V11.5967ZM8 11.5093V3.15733L5.33333 1.824V10.176L8 11.5093ZM4 10.1687V1.73667L1.33333 2.87933V11.3113L4 10.1687Z" fill="#7A869A"/>
</svg>
