<?xml version="1.0" encoding="iso-8859-1"?>
<!-- Generator: Adobe Illustrator 19.0.0, SVG Export Plug-In . SVG Version: 6.00 Build 0)  -->
<svg version="1.1" id="Capa_1" xmlns="http://www.w3.org/2000/svg" xmlns:xlink="http://www.w3.org/1999/xlink" x="0px" y="0px"
	 viewBox="0 0 512 512" style="enable-background:new 0 0 512 512;" xml:space="preserve">
<circle style="fill:#005C83;" cx="256" cy="256" r="256"/>
<path style="fill:#00263F;" d="M511.758,266.777l-97.581-97.581L225,98.762l-111.823,90.163l141.938,141.938L73,389.5
	l112.734,112.734C208.062,508.593,231.633,512,256,512C393.773,512,506.107,403.161,511.758,266.777z"/>
<polygon style="fill:#FFECB3;" points="384.5,225.5 384.5,170.5 256,70.5 127.5,170.5 127.5,225.5 73,225.5 73,389.5 127.5,389.5 
	384.5,389.5 439,389.5 439,225.5 "/>
<polygon style="fill:#FFD863;" points="384.5,225.5 384.5,170.5 256,70.5 256,70.608 256,389.571 384.5,389.5 439,389.5 439,225.5 
	"/>
<polygon style="fill:#FF9451;" points="398.823,188.925 256,77.778 113.177,188.925 97.823,169.196 256,46.1 414.177,169.196 "/>
<polygon style="fill:#F7674F;" points="256,46.1 256,46.1 256,77.778 256,77.778 398.823,188.925 414.177,169.196 "/>
<path style="fill:#FFB344;" d="M297,389h-82v-98c0-22.644,18.356-41,41-41l0,0c22.644,0,41,18.356,41,41V389z"/>
<path style="fill:#FF9451;" d="M297,291c0-22.644-18.356-41-41-41l0,0c-0.016,0-0.032,0.001-0.048,0.001L256,389.571L297,389V291z"
	/>
<rect x="110.5" y="256" style="fill:#35CCFF;" width="58" height="58"/>
<rect x="343.5" y="256" style="fill:#00BAFF;" width="58" height="58"/>
<rect x="174.5" y="161" style="fill:#35CCFF;" width="48" height="57"/>
<rect x="289.5" y="161" style="fill:#00BAFF;" width="48" height="57"/>
<g>
</g>
<g>
</g>
<g>
</g>
<g>
</g>
<g>
</g>
<g>
</g>
<g>
</g>
<g>
</g>
<g>
</g>
<g>
</g>
<g>
</g>
<g>
</g>
<g>
</g>
<g>
</g>
<g>
</g>
</svg>
